# AST/ASF file generated using VICON BodyLanguage
# -----------------------------------------------
:version 1.10
:name VICON
:units
  mass 1.0
  length 0.45
  angle deg
:documentation
   .ast/.asf automatically generated from VICON data using
   VICON BodyBuilder and BodyLanguage model FoxedUp or BRILLIANT.MOD
:root
   order TX TY TZ RX RY RZ
   axis XYZ
   position 0 0 0  
   orientation 0 0 0 
:bonedata
  begin
     id 1 
     name lhipjoint
     direction 0.584852 -0.759097 0.285867 
     length 2.43633 
     axis 0 0 0  XYZ
  end
  begin
     id 2 
     name lfemur
     direction 0.34202 -0.939693 0  
     length 7.14704  
     axis 0 0 20  XYZ
    dof rx ry rz
    limits (-160.0 20.0)
           (-70.0 70.0)
           (-60.0 70.0)
  end
  begin
     id 3 
     name ltibia
     direction 0.342022 -0.939692 0   
     length 7.68483   
     axis 0 0 20   XYZ
    dof rx
    limits (-10.0 170.0)
  end
  begin
     id 4 
     name lfoot
     direction 0.0999605 -0.274639 0.956337   
     length 2.40452   
     axis -90 7.62852e-016 20   XYZ
    dof rx rz
    limits (-45.0 90.0)
           (-70.0 20.0)
  end
  begin
     id 5 
     name ltoes
     direction 1.53468e-011 -4.21881e-011 1   
     length 1.19837   
     axis -90 7.62852e-016 20   XYZ
    dof rx
    limits (-90.0 20.0)
  end
  begin
     id 6 
     name rhipjoint
     direction -0.569886 -0.769002 0.289597   
     length 2.40495  
     axis 0 0 0  XYZ 
  end
  begin
     id 7 
     name rfemur
     direction -0.34202 -0.939693 0   
     length 7.45086   
     axis 0 0 -20   XYZ
    dof rx ry rz
    limits (-160.0 20.0)
           (-70.0 70.0)
           (-70.0 60.0)
  end
  begin
     id 8 
     name rtibia
     direction -0.34202 -0.939693 0   
     length 7.76831   
     axis 0 0 -20   XYZ
    dof rx
    limits (-10.0 170.0)
 end
 begin
     id 9 
     name rfoot
     direction -0.0798572 -0.219406 0.97236   
     length 2.35911  
     axis -90 -7.62852e-016 -20   XYZ
    dof rx rz
    limits (-45.0 90.0)
           (-20.0 70.0)
  end
  begin
     id 10 
     name rtoes
     direction -1.53469e-011 -4.21728e-011 1   
     length 1.18261   
     axis -90 -7.62852e-016 -20   XYZ
    dof rx
    limits (-90.0 20.0)
  end
  begin
     id 11 
     name lowerback
     direction 0.0242088 0.999437 0.0232389   
     length 2.1561   
     axis 0 0 0   XYZ
    dof rx ry rz
    limits (-20.0 45.0)
           (-30.0 30.0)
           (-30.0 30.0)
  end
  begin
     id 12 
     name upperback
     direction -0.0356893 0.999013 -0.0264323   
     length 2.14431   
     axis 0 0 0   XYZ
    dof rx ry rz
    limits (-20.0 45.0)
           (-30.0 30.0)
           (-30.0 30.0)
  end
  begin
     id 13 
     name thorax
     direction -0.0472163 0.998194 -0.0371284   
     length 2.16169   
     axis 0 0 0   XYZ
    dof rx ry rz
    limits (-20.0 45.0)
           (-30.0 30.0)
           (-30.0 30.0)
  end
  begin
     id 14 
     name lowerneck
     direction 0.00863244 0.999921 0.00911972   
     length 1.58651   
     axis 0 0 0   XYZ
    dof rx ry rz
    limits (-20.0 45.0)
           (-30.0 30.0)
           (-30.0 30.0)
  end
  begin
     id 15 
     name upperneck
     direction 0.149523 0.979068 -0.138086   
     length 1.57486   
     axis 0 0 0   XYZ
    dof rx ry rz
    limits (-20.0 45.0)
           (-30.0 30.0)
           (-30.0 30.0)
  end
  begin
     id 16
     name head
     direction 0.0445219 0.997708 -0.0509576  
     length 1.6019  
     axis 0 0 0   XYZ
    dof rx ry rz
    limits (-20.0 45.0)
           (-30.0 30.0)
           (-30.0 30.0)
  end
  begin
     id 17 
     name lclavicle
     direction 0.911271 0.381667 -0.154644  
     length 3.80848  
     axis 0 0 0   XYZ
    dof ry rz
    limits (-20.0 10.0)
           (0.0 20.0)
  end
  begin
     id 18 
     name lhumerus
     direction 1 -4.49003e-011 2.1308e-027   
     length 5.19069   
     axis 180 -30 -90   XYZ
    dof rx ry rz
    limits (-60.0 90.0)
           (-90.0 90.0)
           (-90.0 90.0)
  end
  begin
     id 19
     name lradius
     direction 1 -4.48914e-011 4.01554e-027   
     length 3.30016   
     axis 180 -30 -90   XYZ
    dof rx
    limits (-10.0 170.0)
  end
  begin
     id 20
     name lwrist
     direction 1 -4.49003e-011 1.1934e-026   
     length 1.65008   
     axis -8.46377e-015 90 90   XYZ
    dof ry
    limits (-180.0 0.0)
 end
  begin
     id 21 
     name lhand
     direction 1 -4.49034e-011 2.38659e-026   
     length 0.707698   
     axis -1.52313e-014 90 90   XYZ
    dof rx rz
    limits (-90.0 90.0)
           (-45.0 45.0)
  end
  begin
     id 22 
     name lfingers
     direction 1 -4.48691e-011 4.77775e-026   
     length 0.570564   
     axis -3.04623e-014 90 90   XYZ
    dof rx
    limits (0.0 90.0)
  end
  begin
     id 23
     name lthumb
     direction 0.707107 -6.34832e-011 0.707107   
     length 0.819219   
     axis -90 45 -1.62303e-014   XYZ
    dof rx rz
    limits (-45.0 45.0)
           (-45.0 45.0)
  end
  begin
     id 24 
     name rclavicle
     direction -0.815579 0.573708 -0.0754329   
     length 3.54371  
     axis 0 0 0   XYZ 
    dof ry rz
    limits (-10.0 20.0)
           (-20.0 0.0)
  end
  begin
     id 25 
     name rhumerus
     direction -1 -4.48956e-011 3.05351e-028  
     length 5.23924   
     axis 180 30 90   XYZ
    dof rx ry rz
    limits (-90.0 60.0)
           (-90.0 90.0)
           (-90.0 90.0)
  end
  begin
     id 26 
     name rradius
     direction -1 -4.49013e-011 3.53849e-027   
     length 3.32953   
     axis 180 30 90   XYZ
    dof rx
    limits (-10.0 170.0)
  end
  begin
     id 27 
     name rwrist
     direction -1 -4.48901e-011 1.19374e-026   
     length 1.66477   
     axis -8.46377e-015 -90 -90   XYZ
    dof ry
    limits (-180.0 0.0)
  end
  begin
     id 28
     name rhand
     direction -1 -4.48877e-011 2.38764e-026   
     length 0.607414   
     axis -1.52313e-014 -90 -90   XYZ
    dof rx rz
    limits (-90.0 90.0)
           (-45.0 45.0)
  end
  begin
     id 29
     name rfingers
     direction -1 -4.48882e-011 4.77521e-026   
     length 0.489712   
     axis -3.04623e-014 -90 -90   XYZ
    dof rx
    limits (0.0 90.0)
  end
  begin
     id 30
     name rthumb
     direction -0.707107 -6.34974e-011 0.707107   
     length 0.703132   
     axis -90 -45 1.62303e-014   XYZ
    dof rx rz
    limits (-45.0 45.0)
           (-45.0 45.0)
  end
:hierarchy
  begin
    root lhipjoint rhipjoint lowerback
    lhipjoint lfemur
    lfemur ltibia
    ltibia lfoot
    lfoot ltoes
    rhipjoint rfemur
    rfemur rtibia
    rtibia rfoot
    rfoot rtoes
    lowerback upperback
    upperback thorax
    thorax lowerneck lclavicle rclavicle
    lowerneck upperneck
    upperneck head
    lclavicle lhumerus
    lhumerus lradius
    lradius lwrist
    lwrist lhand lthumb
    lhand lfingers
    rclavicle rhumerus
    rhumerus rradius
    rradius rwrist
    rwrist rhand rthumb
    rhand rfingers
  end

#!OML:ASF E:\VariousWalksJay\Project 1\Capture day 1\Session 1\Actor2.ASF
:FULLY-SPECIFIED
:DEGREES
166
root 25.406 16.6489 47.2286 172.011 -62.4803 -171.605
lowerback -1.23139 0.421361 4.81659
upperback 4.8438 0.332276 -1.59889
thorax 5.77761 0.386011 -4.35731
lowerneck -12.1538 -5.58405 -4.72982
upperneck 13.0866 -9.14247 13.0523
head 6.84314 -3.77202 4.06498
rclavicle 3.18055e-014 -6.36111e-015
rhumerus -33.8811 9.88598 -87.8702
rradius 41.177
rwrist -3.49501
rhand -10.4026 -7.70668
rfingers 7.12502
rthumb 15.596 -37.0979
lclavicle 3.18055e-014 -6.36111e-015
lhumerus -23.069 -16.8047 83.7039
lradius 27.5443
lwrist 9.91162
lhand -6.80222 -9.5986
lfingers 7.12502
lthumb 19.061 19.4874
rfemur -12.752 -1.95785 24.7252
rtibia 33.5036
rfoot -13.8734 -14.5461
rtoes -26.8849
lfemur -8.57438 9.64344 -16.0171
ltibia 28.6139
lfoot -17.4424 13.914
ltoes -23.9115
167
root 25.4061 16.6476 47.2286 172.061 -62.412 -171.665
lowerback -1.24575 0.38469 4.72286
upperback 4.8389 0.285739 -1.57614
thorax 5.77341 0.357797 -4.2832
lowerneck -12.0859 -5.63251 -4.83093
upperneck 13.1606 -9.20758 13.0745
head 6.86644 -3.80739 4.08341
rclavicle -1.0138e-014 1.11319e-014
rhumerus -33.8917 10.1389 -87.9243
rradius 41.5369
rwrist -3.53853
rhand -10.4737 -7.72157
rfingers 7.12502
rthumb 15.5274 -37.1181
lclavicle -1.0138e-014 1.11319e-014
lhumerus -23.1309 -16.8414 83.7445
lradius 27.7849
lwrist 9.97501
lhand -6.80323 -9.59422
lfingers 7.12502
lthumb 19.0601 19.4919
rfemur -12.7812 -1.97593 24.7044
rtibia 33.5574
rfoot -13.9285 -14.4613
rtoes -26.756
lfemur -8.55191 9.65039 -16.0255
ltibia 28.6269
lfoot -17.5112 13.9139
ltoes -23.7958
168
root 25.4063 16.6464 47.2277 172.111 -62.3528 -171.726
lowerback -1.27003 0.348885 4.61615
upperback 4.83573 0.240531 -1.55443
thorax 5.77692 0.329923 -4.20283
lowerneck -11.9943 -5.67432 -4.91526
upperneck 13.224 -9.2666 13.0971
head 6.88095 -3.84056 4.10038
rclavicle -1.8487e-014 1.82882e-014
rhumerus -33.8921 10.3445 -87.9771
rradius 41.8659
rwrist -3.56971
rhand -10.5355 -7.73308
rfingers 7.12502
rthumb 15.468 -37.1343
lclavicle -1.8487e-014 1.82882e-014
lhumerus -23.1902 -16.9066 83.786
lradius 28.0346
lwrist 10.0392
lhand -6.80819 -9.58172
lfingers 7.12502
lthumb 19.0553 19.5048
rfemur -12.8015 -1.98116 24.6859
rtibia 33.6045
rfoot -13.9861 -14.3951
rtoes -26.6085
lfemur -8.52372 9.65571 -16.0309
ltibia 28.6338
lfoot -17.576 13.9014
ltoes -23.6954
169
root 25.4065 16.6454 47.2259 172.154 -62.3004 -171.782
lowerback -1.29858 0.312732 4.50632
upperback 4.83412 0.195036 -1.53788
thorax 5.78473 0.302028 -4.12621
lowerneck -11.8838 -5.70784 -4.98319
upperneck 13.2763 -9.31874 13.1282
head 6.88771 -3.87051 4.11854
rclavicle 4.88016e-014 -1.27222e-014
rhumerus -33.8921 10.5962 -88.0595
rradius 42.181
rwrist -3.67325
rhand -10.6477 -7.78076
rfingers 7.12502
rthumb 15.3598 -37.1902
lclavicle 4.88016e-014 -1.27222e-014
lhumerus -23.2499 -17.0118 83.8219
lradius 28.3035
lwrist 10.1097
lhand -6.82457 -9.55107
lfingers 7.12502
lthumb 19.0395 19.537
rfemur -12.8122 -1.97059 24.6735
rtibia 33.6451
rfoot -14.034 -14.3564
rtoes -26.4986
lfemur -8.48929 9.66192 -16.0296
ltibia 28.6356
lfoot -17.6384 13.8759
ltoes -23.5872
170
root 25.4068 16.6446 47.224 172.191 -62.246 -171.831
lowerback -1.32377 0.273899 4.40837
upperback 4.82992 0.146148 -1.52994
thorax 5.78798 0.273083 -4.0656
lowerneck -11.7588 -5.72967 -5.04328
upperneck 13.3218 -9.35913 13.1727
head 6.88901 -3.89465 4.14146
rclavicle 6.95746e-016 -1.51076e-014
rhumerus -33.9021 10.8976 -88.1766
rradius 42.4987
rwrist -3.83117
rhand -10.7028 -7.84536
rfingers 7.12502
rthumb 15.3068 -37.2589
lclavicle 6.95746e-016 -1.51076e-014
lhumerus -23.3129 -17.137 83.8436
lradius 28.5921
lwrist 10.1766
lhand -6.8448 -9.51559
lfingers 7.12502
lthumb 19.0201 19.5744
rfemur -12.8187 -1.93678 24.6678
rtibia 33.6789
rfoot -14.0657 -14.3468
rtoes -26.4576
lfemur -8.45346 9.66796 -16.0232
ltibia 28.6346
lfoot -17.7045 13.844
ltoes -23.4743
171
root 25.4074 16.6439 47.2224 172.232 -62.1881 -171.881
lowerback -1.33493 0.230514 4.33346
upperback 4.81797 0.0918396 -1.53851
thorax 5.77504 0.242465 -4.03561
lowerneck -11.6338 -5.74184 -5.09621
upperneck 13.3805 -9.39278 13.2294
head 6.89425 -3.91434 4.168
rclavicle 2.9122e-014 -6.36111e-015
rhumerus -33.9209 11.1934 -88.3239
rradius 42.8117
rwrist -3.96691
rhand -10.7507 -7.92716
rfingers 7.12502
rthumb 15.2606 -37.3442
lclavicle 2.9122e-014 -6.36111e-015
lhumerus -23.3872 -17.2823 83.8426
lradius 28.9104
lwrist 10.2439
lhand -6.8656 -9.46517
lfingers 7.12502
lthumb 19.0001 19.6268
rfemur -12.8264 -1.89083 24.6621
rtibia 33.7073
rfoot -14.0754 -14.3529
rtoes -26.495
lfemur -8.42291 9.67425 -16.0188
ltibia 28.6349
lfoot -17.7617 13.8176
ltoes -23.373
172
root 25.4081 16.6434 47.2214 172.274 -62.1182 -171.929
lowerback -1.33254 0.185918 4.28685
upperback 4.80034 0.0361137 -1.56251
thorax 5.74873 0.212453 -4.03781
lowerneck -11.5199 -5.74587 -5.14208
upperneck 13.4577 -9.42133 13.2941
head 6.90698 -3.92999 4.19645
rclavicle 4.00551e-014 -9.54166e-015
rhumerus -33.949 11.5188 -88.5065
rradius 43.1347
rwrist -4.11548
rhand -10.819 -8.05401
rfingers 7.12502
rthumb 15.1948 -37.4761
lclavicle 4.00551e-014 -9.54166e-015
lhumerus -23.4684 -17.4451 83.8209
lradius 29.2651
lwrist 10.3207
lhand -6.86703 -9.43587
lfingers 7.12502
lthumb 18.9987 19.6563
rfemur -12.8383 -1.82109 24.6581
rtibia 33.7315
rfoot -14.0495 -14.3813
rtoes -26.6612
lfemur -8.39942 9.68623 -16.0162
ltibia 28.6389
lfoot -17.8175 13.8018
ltoes -23.2613
173
root 25.4091 16.643 47.2215 172.313 -62.0333 -171.968
lowerback -1.29635 0.134724 4.2912
upperback 4.76558 -0.0275421 -1.61161
thorax 5.68477 0.180358 -4.09529
lowerneck -11.4312 -5.73783 -5.18177
upperneck 13.5772 -9.44329 13.3701
head 6.93738 -3.93953 4.22799
rclavicle -4.96962e-015 2.38542e-015
rhumerus -33.9823 11.8249 -88.7306
rradius 43.4405
rwrist -4.21217
rhand -10.8248 -8.15871
rfingers 7.12502
rthumb 15.1893 -37.5812
lclavicle -4.96962e-015 2.38542e-015
lhumerus -23.5732 -17.6098 83.7623
lradius 29.6625
lwrist 10.4117
lhand -6.85916 -9.38414
lfingers 7.12502
lthumb 19.0063 19.7072
rfemur -12.8605 -1.7402 24.6576
rtibia 33.7554
rfoot -13.9904 -14.4203
rtoes -26.9681
lfemur -8.38866 9.70018 -16.0145
ltibia 28.6495
lfoot -17.8642 13.8062
ltoes -23.1751
174
root 25.4103 16.6426 47.2221 172.36 -61.9407 -172.014
lowerback -1.24466 0.083785 4.31273
upperback 4.72654 -0.090365 -1.67397
thorax 5.60761 0.149303 -4.17609
lowerneck -11.3671 -5.72595 -5.22254
upperneck 13.7244 -9.46611 13.4568
head 6.98179 -3.94719 4.26275
rclavicle 1.09332e-014 2.38542e-014
rhumerus -34.0307 12.0305 -88.954
rradius 43.772
rwrist -4.19506
rhand -10.7732 -8.24077
rfingers 7.12502
rthumb 15.2389 -37.6595
lclavicle 1.09332e-014 2.38542e-014
lhumerus -23.6802 -17.7852 83.6863
lradius 30.1002
lwrist 10.527
lhand -6.83326 -9.33017
lfingers 7.12502
lthumb 19.0312 19.7588
rfemur -12.8884 -1.64696 24.6537
rtibia 33.7811
rfoot -13.927 -14.4625
rtoes -27.2757
lfemur -8.3873 9.72245 -16.0198
ltibia 28.6675
lfoot -17.9021 13.8232
ltoes -23.0959
175
root 25.4118 16.6421 47.2237 172.42 -61.8372 -172.068
lowerback -1.17293 0.0345695 4.3613
upperback 4.6798 -0.150301 -1.75354
thorax 5.51127 0.120599 -4.28973
lowerneck -11.3331 -5.71218 -5.2626
upperneck 13.9032 -9.49322 13.5528
head 7.04268 -3.95424 4.2996
rclavicle -3.27995e-015 -1.35174e-014
rhumerus -34.098 12.2714 -89.213
rradius 44.1265
rwrist -4.19182
rhand -10.7191 -8.31664
rfingers 7.12502
rthumb 15.2911 -37.7314
lclavicle -3.27995e-015 -1.35174e-014
lhumerus -23.786 -17.9604 83.5887
lradius 30.5711
lwrist 10.6653
lhand -6.79777 -9.27133
lfingers 7.12502
lthumb 19.0653 19.8142
rfemur -12.9306 -1.55236 24.6432
rtibia 33.8125
rfoot -13.848 -14.4988
rtoes -27.6435
lfemur -8.40109 9.74847 -16.0371
ltibia 28.6928
lfoot -17.9291 13.8659
ltoes -23.0215
